HIERARCHY
ROOT Hips
{
	OFFSET 0.000000 0.000000 0.000000 
	CHANNELS 6 Xposition Yposition Zposition Yrotation Zrotation Xrotation 
	JOINT Lumbar
	{
		OFFSET 0.000000 0.000000 0.000000 
		CHANNELS 3 Zrotation Xrotation Yrotation
		JOINT Neck
		{
			OFFSET 0.000000 0.445665 0.000000 
			CHANNELS 3 Zrotation Xrotation Yrotation
			End Site
			{
				OFFSET 0.000000 0.227535 0.000000 
			}
		}
		JOINT RightShoulder
		{
			OFFSET 0.019635 0.377685 0.194865 
			CHANNELS 3 Zrotation Xrotation Yrotation
			JOINT RightElbow
			{
				OFFSET 0.000000 -0.243375 0.000000 
				CHANNELS 2 Zrotation Yrotation
				JOINT RightWrist
				{
					OFFSET 0.000000 -0.264825 0.000000 
					CHANNELS 2 Zrotation Xrotation
					End Site
					{
						OFFSET 0.006600 -0.176220 0.000990 
					}
				}
			}
		}
		JOINT LeftShoulder
		{
			OFFSET 0.019635 0.377685 -0.194865 
			CHANNELS 3 Zrotation Xrotation Yrotation
			JOINT LeftElbow
			{
				OFFSET 0.000000 -0.243375 0.000000 
				CHANNELS 2 Zrotation Yrotation
				JOINT LeftWrist
				{
					OFFSET 0.000000 -0.264825 0.000000 
					CHANNELS 2 Zrotation Xrotation
					End Site
					{
						OFFSET 0.006600 -0.176220 -0.000990 
					}
				}
			}
		}
	}
	JOINT RightHip
	{
		OFFSET 0.052140 -0.069960 0.075570 
		CHANNELS 3 Zrotation Xrotation Yrotation
		JOINT RightKnee
		{
			OFFSET 0.000000 -0.402270 0.000000 
			CHANNELS 1 Zrotation
			JOINT RightAnkle
			{
				OFFSET 0.000000 -0.404085 0.000000 
				CHANNELS 3 Zrotation Xrotation Yrotation
				End Site
				{
					OFFSET 0.204105 -0.089430 0.008415 
				}
			}
		}
	}
	JOINT LeftHip
	{
		OFFSET 0.052140 -0.069960 -0.075570 
		CHANNELS 3 Zrotation Xrotation Yrotation
		JOINT LeftKnee
		{
			OFFSET 0.000000 -0.402270 0.000000 
			CHANNELS 1 Zrotation
			JOINT LeftAnkle
			{
				OFFSET 0.000000 -0.404085 0.000000 
				CHANNELS 3 Zrotation Xrotation Yrotation
				End Site
				{
					OFFSET 0.204105 -0.089430 -0.008415 
				}
			}
		}
	}
}
MOTION
Frames: 28
Frame Time: 0.02
-0.78018 0.96062 1.21344 1415.84565 0 -9.2158 3.86999 9.90567 -0.86696 -7.33392 -0.09959 -1.50016 1.64407 -0.08062 -7.44171 130.54827 0.88533 70.83921 -21.65059 -6.23216 14.27745 -14.3062 98.17146 -87.87031 51.73441 3.1185 4.3769 11.90159 11.71842 -17.89485 4.39579 -5.0125 -7.85118 18.8094 -1.39974 -8.04225 -71.36206 3.20679 5.69023 15.12767
-0.77146 0.96111 1.22086 1416.69618 0 -8.58106 3.4978 9.50525 -0.40959 -7.08616 -1.04563 -1.31456 0.80669 0.59409 -7.36474 130.24259 0.8778 71.3832 -21.65343 -6.71295 15.01679 -13.83005 98.38019 -88.14859 51.93506 3.10079 3.52547 11.55307 11.57929 -17.73806 4.91384 -5.50164 -8.67261 20.20257 -2.20896 -7.30326 -68.3608 3.82559 5.59648 15.93093
-0.76234 0.96116 1.22806 1417.52296 0 -7.95467 3.16632 9.09937 -0.10289 -6.95784 -1.97699 -1.05275 0.17962 1.22201 -7.37801 129.97814 0.87079 71.90833 -21.65614 -7.1575 15.72104 -13.26345 98.52038 -88.41997 52.15635 3.08476 2.731 11.1611 11.07932 -17.67626 5.50785 -5.92185 -9.12042 21.27793 -3.01288 -6.77073 -64.34263 4.46976 5.41247 16.57562
-0.75335 0.96136 1.23538 1418.34292 0 -7.33417 2.81947 8.70093 0.28241 -6.77762 -2.90639 -0.82836 -0.53642 1.86573 -7.34578 129.69738 0.86357 72.43807 -21.65893 -7.6156 16.43426 -12.74112 98.69537 -88.68577 52.36613 3.06868 1.91171 10.8006 10.75889 -17.57532 6.06813 -6.37498 -9.7387 22.46565 -3.80117 -6.15944 -60.73454 5.07422 5.28139 17.25128
-0.7446 0.96178 1.2426 1419.23502 0 -6.67055 2.45678 8.28038 0.63265 -6.58621 -3.87355 -0.59275 -1.28784 2.52997 -7.32425 129.40568 0.85613 72.98354 -21.66177 -8.09051 17.17844 -12.20282 98.85191 -88.98964 52.58846 3.04962 1.09154 10.39006 10.37563 -17.45917 6.62275 -6.82375 -10.35956 23.78573 -4.6696 -5.4911 -57.30536 5.81047 5.10026 18.09661
-0.73525 0.96164 1.24997 1419.97132 0 -6.09946 2.13852 7.90442 1.01652 -6.44727 -4.75718 -0.36219 -1.91279 3.14036 -7.30444 129.14682 0.84934 73.49095 -21.66442 -8.51905 17.84821 -11.67793 99.03124 -89.21221 52.78773 3.03711 0.2845 10.07311 10.03704 -17.39607 7.20784 -7.2648 -10.88326 24.75475 -5.36788 -4.98892 -53.28242 6.27564 4.99993 18.55034
-0.72447 0.96016 1.25779 1420.29272 0 -5.78338 1.92418 7.66058 1.53822 -6.41997 -5.4246 -0.16464 -2.23855 3.62533 -7.27523 128.96867 0.84405 73.91235 -21.66659 -8.84037 18.33355 -11.20522 99.29636 -89.21046 52.92397 3.04291 -0.48975 10.03145 9.90247 -17.46261 7.86121 -7.6949 -11.24135 24.84597 -5.6033 -4.88303 -47.81805 5.95739 5.16881 17.98768
-0.71307 0.95814 1.26577 1420.45698 0 -5.56009 1.75532 7.46063 2.09638 -6.44242 -6.00638 0.02508 -2.44301 4.05598 -7.24472 128.82231 0.83944 74.29363 -21.66853 -9.1132 18.74294 -10.75114 99.58597 -89.12733 53.03495 3.05514 -1.25515 10.0843 9.82602 -17.57808 8.54214 -8.12007 -11.51154 24.59368 -5.6665 -4.93709 -41.81121 5.36889 5.41821 17.03367
-0.70188 0.95634 1.27368 1420.68723 0 -5.29374 1.57129 7.23591 2.6317 -6.44458 -6.62025 0.21908 -2.70344 4.50437 -7.21058 128.66125 0.83464 74.68424 -21.67053 -9.40033 19.17876 -10.29284 99.86118 -89.08204 53.15311 3.06403 -2.03175 10.09015 9.7277 -17.66649 9.20945 -8.55175 -11.8143 24.48919 -5.80378 -4.9264 -36.08414 4.92036 5.61491 16.24089
-0.69101 0.95465 1.28155 1420.93888 0 -5.03175 1.36428 7.03149 3.1888 -6.44024 -7.26257 0.41379 -2.95498 4.98068 -7.19617 128.50224 0.82935 75.11215 -21.67273 -9.72035 19.64706 -9.81165 100.1486 -89.03236 53.28951 3.07475 -2.77569 10.11222 9.59854 -17.77776 9.88533 -8.96444 -12.13642 24.40535 -5.95692 -4.89492 -30.15824 4.39943 5.87524 15.50729
-0.67931 0.9526 1.28955 1421.1097 0 -4.78218 1.21686 6.79509 3.71057 -6.46076 -7.82533 0.60277 -3.19659 5.38618 -7.14054 128.34652 0.82525 75.45259 -21.67446 -9.959 20.03065 -9.38597 100.41623 -88.97331 53.38252 3.08313 -3.5867 10.1227 9.55104 -17.85285 10.54723 -9.41468 -12.40074 24.20518 -6.03831 -4.93523 -24.55906 3.96616 6.02481 14.56627
-0.6656 0.94969 1.29791 1421.08898 0 -4.54745 1.21088 6.46093 4.13096 -6.52866 -8.19064 0.78984 -3.4604 5.61273 -6.95986 128.18742 0.82417 75.5656 -21.67507 -9.99982 20.19431 -9.0906 100.63279 -88.90325 53.35401 3.0834 -4.58054 10.08476 9.72549 -17.80946 11.17725 -9.98325 -12.53982 23.73247 -5.94623 -5.196 -19.76031 3.82551 5.83738 13.09488
-0.65103 0.94645 1.3064 1420.99337 0 -4.32096 1.2657 6.09253 4.51429 -6.62131 -8.47865 0.96902 -3.71509 5.76935 -6.73935 128.03121 0.82429 75.59128 -21.67519 -9.95742 20.2762 -8.85444 100.82713 -88.82837 53.28395 3.08093 -5.64227 10.03041 9.97982 -17.7308 11.78886 -10.58654 -12.62265 23.16167 -5.79181 -5.51395 -15.35727 3.7834 5.53885 11.44122
-0.63676 0.94337 1.31482 1420.93708 0 -4.08909 1.29986 5.73942 4.91206 -6.70749 -8.80133 1.14327 -3.9627 5.9563 -6.54438 127.87655 0.82393 75.6542 -21.67547 -9.94394 20.39893 -8.60358 101.02576 -88.75799 53.23818 3.07993 -6.67755 9.98001 10.19253 -17.66946 12.40028 -11.16686 -12.72539 22.66196 -5.67658 -5.76067 -10.93315 3.70842 5.29848 9.90407
-0.6229 0.94024 1.32328 1420.85443 0 -3.86908 1.30467 5.39032 5.32134 -6.77377 -9.12303 1.35229 -4.25585 6.14816 -6.31853 127.71094 0.8233 75.72598 -21.67602 -9.96784 20.50418 -8.30138 101.24984 -88.67166 53.16927 3.07882 -7.69825 9.94961 10.42996 -17.59588 13.05084 -11.78177 -12.85103 22.04259 -5.50681 -6.19196 -5.82266 3.58091 5.02626 8.20204
-0.60797 0.93715 1.33168 1420.80912 0 -3.62293 1.38637 5.02246 5.69715 -6.88863 -9.42942 1.48833 -4.45041 6.31303 -6.14691 127.56842 0.82351 75.75919 -21.6759 -9.89284 20.62651 -8.12044 101.41519 -88.62271 53.13828 3.07643 -8.76011 9.87001 10.63355 -17.54949 13.61262 -12.3274 -12.91388 21.64806 -5.44145 -6.26558 -2.23858 3.58074 4.79573 6.81649
-0.59047 0.93415 1.33989 1420.90141 0 -3.32142 1.64855 4.62608 5.9915 -7.11409 -9.71375 1.41412 -4.40322 6.42813 -6.1399 127.48908 0.82575 75.70681 -21.67403 -9.58283 20.82386 -8.25709 101.4281 -88.65798 53.22469 3.07448 -9.96291 9.67942 10.73033 -17.49823 13.95099 -12.72003 -12.8419 21.94825 -5.65023 -5.19897 -2.81513 3.98932 4.68154 6.24856
-0.57191 0.93123 1.34802 1421.03143 0 -2.98977 1.98857 4.20942 6.25297 -7.38993 -9.98544 1.26876 -4.25266 6.51723 -6.18777 127.43301 0.82877 75.6191 -21.67152 -9.17396 21.04 -8.51497 101.38398 -88.74618 53.34768 3.06841 -11.19463 9.43601 10.78932 -17.49426 14.19451 -13.03255 -12.70366 22.47012 -5.97151 -3.79112 -4.90843 4.51093 4.61624 6.02127
-0.55373 0.92835 1.35618 1421.13459 0 -2.6585 2.30432 3.79147 6.52799 -7.65476 -10.26259 1.16298 -4.13126 6.61363 -6.20731 127.36564 0.83143 75.54778 -21.66931 -8.79788 21.24297 -8.7181 101.36022 -88.80988 53.4557 3.06489 -12.38692 9.20197 10.86076 -17.52345 14.47355 -13.35169 -12.58112 22.86014 -6.26284 -2.63511 -6.2832 4.92626 4.54693 5.71246
-0.53597 0.92512 1.3644 1421.27684 0 -2.38193 2.57691 3.41491 6.80738 -7.87303 -10.53852 1.0263 -4.08392 6.72704 -6.24025 127.30016 0.83421 75.47114 -21.667 -8.46659 21.46321 -8.91862 101.35004 -88.83025 53.56611 3.06774 -13.7008 9.02715 10.95318 -17.31085 14.79539 -13.79977 -12.52103 23.37968 -6.46696 -1.09067 -7.79762 5.56813 4.40249 5.10801
-0.51709 0.92266 1.37247 1421.34664 0 -1.98653 2.95511 2.95004 7.07063 -8.19649 -10.8146 0.93723 -3.8589 6.79923 -6.25825 127.23788 0.83687 75.39937 -21.6648 -8.02406 21.65222 -9.15666 101.30977 -89.00993 53.66721 3.04468 -14.75708 8.71924 10.99411 -17.62591 14.9915 -13.95733 -12.31132 23.68111 -6.87465 -0.25094 -9.37274 5.77446 4.42062 5.17713
-0.49524 0.9222 1.38022 1421.21652 0 -1.25073 3.62194 2.22798 7.29458 -8.82671 -11.09781 0.99628 -3.16174 6.76936 -6.22675 127.16421 0.83934 75.34099 -21.66282 -7.26142 21.75793 -9.43114 101.09945 -89.11578 53.85343 3.05466 -15.18204 8.03472 10.8805 -19.27869 14.99122 -13.3556 -11.74809 23.34629 -7.86623 -1.64193 -10.77392 4.65732 4.93736 7.25236
-0.47231 0.92253 1.38782 1421.01122 0 -0.40074 4.38856 1.42207 7.50377 -9.55507 -11.38105 1.10547 -2.29191 6.69858 -6.1777 127.09533 0.8416 75.29064 -21.66102 -6.39793 21.83064 -9.74424 100.87775 -89.46071 54.00929 3.02184 -15.32962 7.22256 10.71869 -21.47933 14.84778 -12.46146 -11.03166 22.78099 -9.05011 -3.72194 -12.17614 3.11428 5.60616 9.958
-0.44994 0.92257 1.39547 1420.83409 0 0.38506 5.09927 0.66579 7.72219 -10.22023 -11.66267 1.19282 -1.50408 6.64286 -6.1333 127.03421 0.84373 75.24296 -21.65931 -5.60494 21.91386 -10.06605 100.73011 -90.04109 54.0977 2.93756 -15.54744 6.48302 10.59434 -23.50233 14.68139 -11.68356 -10.3535 22.30852 -10.11369 -5.34664 -13.55685 1.82758 6.16404 12.21765
-0.42722 0.92234 1.40321 1420.68194 0 1.2268 5.85935 -0.14289 7.93025 -10.96778 -11.95177 1.27549 -0.69267 6.59965 -6.1042 126.93334 0.84679 75.16793 -21.65689 -4.70293 22.01637 -10.28808 100.29788 -89.22378 54.52052 3.14238 -16.0042 5.6788 10.40839 -25.23329 14.86745 -10.96614 -9.79344 21.89426 -11.31925 -7.53535 -15.08052 0.28224 6.89554 15.13708
-0.40502 0.92286 1.41073 1420.4614 0 1.97502 6.53674 -0.85826 8.15498 -11.56373 -12.22399 1.37849 0.10294 6.52288 -6.03916 126.91438 0.8479 75.15149 -21.65597 -4.0071 22.07097 -10.71696 100.44608 -91.307 54.2515 2.74767 -15.89423 4.9811 10.33308 -27.6926 14.30648 -10.06316 -8.96682 21.30083 -12.27433 -8.74793 -16.28565 -0.83005 7.30664 16.85939
-0.38436 0.92528 1.41776 1420.05407 0 2.46809 6.98239 -1.32748 8.44471 -11.73967 -12.4617 1.54499 0.8668 6.34712 -5.87239 127.13506 0.84318 75.30121 -21.65955 -3.89072 21.99828 -11.78178 102.28913 -101.91741 51.9729 0.59826 -14.31089 4.59746 10.63371 -32.10489 11.54689 -8.64353 -7.31276 20.271 -12.47994 -6.82921 -16.61362 -0.61605 6.74658 14.83976
-0.36431 0.92842 1.42457 1419.58397 0 2.85681 7.33702 -1.69359 8.74855 -11.75553 -12.67982 1.72698 1.59834 6.1418 -5.6713 127.43516 0.83657 75.50831 -21.66459 -3.98826 21.8789 -13.03988 104.70003 -115.33224 49.019 -2.13247 -12.16283 4.32815 11.03725 -37.21285 8.0723 -7.06156 -5.41939 19.06759 -12.42732 -3.95142 -16.61305 0.0435 5.86796 11.63953
